<svg width="25" height="25" viewBox="0 0 25 25" fill="none" xmlns="http://www.w3.org/2000/svg">
<path d="M20.8333 7.29167H4.16667C3.59137 7.29167 3.125 7.75805 3.125 8.33334V16.6667C3.125 17.242 3.59137 17.7083 4.16667 17.7083H20.8333C21.4086 17.7083 21.875 17.242 21.875 16.6667V8.33334C21.875 7.75805 21.4086 7.29167 20.8333 7.29167Z" stroke="white" stroke-width="1.5" stroke-linecap="round" stroke-linejoin="round"/>
<path d="M6.25 9.89584V15.1042" stroke="white" stroke-width="1.5" stroke-linecap="round" stroke-linejoin="round"/>
<path d="M15.1041 12.5C15.1041 13.9382 13.9381 15.1042 12.4999 15.1042C11.0617 15.1042 9.89575 13.9382 9.89575 12.5C9.89575 11.0618 11.0617 9.89584 12.4999 9.89584C13.9381 9.89584 15.1041 11.0618 15.1041 12.5Z" stroke="white" stroke-width="1.5" stroke-linecap="round" stroke-linejoin="round"/>
<path d="M18.75 9.89584V15.1042" stroke="white" stroke-width="1.5" stroke-linecap="round" stroke-linejoin="round"/>
</svg>
