<svg width="25" height="25" viewBox="0 0 25 25" fill="none" xmlns="http://www.w3.org/2000/svg">
<g clip-path="url(#clip0_86_19)">
<path d="M0.0242658 24.5466C0.135411 22.505 0.635196 20.6309 1.51855 18.9436C2.50294 17.0634 3.72065 15.7346 5.13223 15.0003C6.03605 14.5302 7.08812 14.4813 8.25438 14.855C8.78363 15.0246 9.11022 15.1925 10.0592 15.7828C12.6177 17.3742 14.2762 17.9754 15.613 17.796C16.1188 17.7282 16.5104 17.5958 17.2291 17.2497C17.8701 16.9411 18.0687 16.8024 18.8282 16.1329C19.1073 15.8868 19.4477 15.6267 19.5846 15.5548C19.807 15.4381 19.8689 15.4274 20.1671 15.4542C21.0178 15.5308 21.7845 16.1472 22.7212 17.5072C23.5492 18.7096 23.978 19.6583 24.3425 21.0941C24.5514 21.9172 24.7255 22.8626 24.8497 23.8477C24.9075 24.3063 24.9648 24.7532 24.9772 24.8408L24.9998 25.0002H12.4998H-0.000244141L0.0242658 24.5466ZM13.3819 14.5297C11.0743 14.1814 9.01992 12.6327 7.91779 10.4104C7.34848 9.26259 7.11163 8.22634 7.10501 6.85452C7.09205 4.18687 8.53535 1.76563 10.804 0.648875C11.7746 0.17109 12.7517 -0.0372723 13.8213 0.00547768C14.8638 0.047192 15.4677 0.196438 16.4395 0.652581C17.1444 0.983438 17.5172 1.22158 18.0785 1.69962C19.9501 3.29351 21.0108 5.84473 20.795 8.23341C20.6667 9.65427 20.2767 10.7642 19.5225 11.8553C18.1615 13.8242 15.7283 14.8839 13.3819 14.5297Z" fill="white"/>
</g>
<defs>
<clipPath id="clip0_86_19">
<rect width="25" height="25" fill="white"/>
</clipPath>
</defs>
</svg>
