<svg width="25" height="25" viewBox="0 0 25 25" fill="none" xmlns="http://www.w3.org/2000/svg">
<path d="M8.33325 10.4167C9.46106 9.61817 10.4975 8.57396 11.9191 8.37397C12.8137 8.24811 13.7249 8.41639 14.5156 8.85343C15.3063 9.29048 15.9335 9.97264 16.3027 10.7971C16.6719 11.6216 16.7631 12.5437 16.5627 13.4246C16.3622 14.3054 15.881 15.0972 15.1913 15.6807C14.5016 16.2643 13.641 16.6079 12.7391 16.6598C11.8371 16.7117 10.9427 16.4691 10.1907 15.9685C9.43863 15.468 8.86963 14.7366 8.56943 13.8846" stroke="white" stroke-width="1.5" stroke-linecap="round" stroke-linejoin="round"/>
<path d="M8.33325 7.29167V10.4167H11.4583" stroke="white" stroke-width="1.5" stroke-linecap="round" stroke-linejoin="round"/>
<path d="M12.5 21.875C17.6777 21.875 21.875 17.6777 21.875 12.5C21.875 7.32233 17.6777 3.125 12.5 3.125C7.32233 3.125 3.125 7.32233 3.125 12.5C3.125 17.6777 7.32233 21.875 12.5 21.875Z" stroke="white" stroke-width="1.5" stroke-linecap="round" stroke-linejoin="round"/>
</svg>
