<svg width="26" height="26" viewBox="0 0 26 26" fill="none" xmlns="http://www.w3.org/2000/svg">
<path d="M21.9602 11.445H15.3196C15.1047 11.445 14.929 11.2692 14.929 11.0544V4.41376C14.929 3.33466 14.0549 2.46063 12.9758 2.46063C11.8967 2.46063 11.0227 3.33466 11.0227 4.41376V11.0544C11.0227 11.2692 10.8469 11.445 10.6321 11.445H3.99146C2.91235 11.445 2.03833 12.319 2.03833 13.3981C2.03833 14.4772 2.91235 15.3513 3.99146 15.3513H10.6321C10.8469 15.3513 11.0227 15.527 11.0227 15.7419V22.3825C11.0227 23.4616 11.8967 24.3356 12.9758 24.3356C14.0549 24.3356 14.929 23.4616 14.929 22.3825V15.7419C14.929 15.527 15.1047 15.3513 15.3196 15.3513H21.9602C23.0393 15.3513 23.9133 14.4772 23.9133 13.3981C23.9133 12.319 23.0393 11.445 21.9602 11.445Z" fill="white"/>
</svg>
