<svg width="25" height="25" viewBox="0 0 25 25" fill="none" xmlns="http://www.w3.org/2000/svg">
<path d="M9.82138 10.2682V18.3043C9.82138 18.4346 9.77941 18.5415 9.69548 18.6248C9.61155 18.7081 9.5047 18.7501 9.37493 18.7507H8.48204C8.35167 18.7507 8.24482 18.7087 8.16149 18.6248C8.07815 18.5409 8.03618 18.434 8.03559 18.3043V10.2682C8.03559 10.1378 8.07755 10.031 8.16149 9.94765C8.24542 9.86432 8.35227 9.82235 8.48204 9.82175H9.37493C9.50529 9.82175 9.61214 9.86372 9.69548 9.94765C9.77882 10.0316 9.82078 10.1384 9.82138 10.2682ZM13.393 10.2682V18.3043C13.393 18.4346 13.351 18.5415 13.2671 18.6248C13.1831 18.7081 13.0763 18.7501 12.9465 18.7507H12.0536C11.9233 18.7507 11.8164 18.7087 11.7331 18.6248C11.6497 18.5409 11.6078 18.434 11.6072 18.3043V10.2682C11.6072 10.1378 11.6491 10.031 11.7331 9.94765C11.817 9.86432 11.9238 9.82235 12.0536 9.82175H12.9465C13.0769 9.82175 13.1837 9.86372 13.2671 9.94765C13.3504 10.0316 13.3924 10.1384 13.393 10.2682ZM16.9645 10.2682V18.3043C16.9645 18.4346 16.9226 18.5415 16.8386 18.6248C16.7547 18.7081 16.6479 18.7501 16.5181 18.7507H15.6252C15.4948 18.7507 15.388 18.7087 15.3046 18.6248C15.2213 18.5409 15.1793 18.434 15.1787 18.3043V10.2682C15.1787 10.1378 15.2207 10.031 15.3046 9.94765C15.3886 9.86432 15.4954 9.82235 15.6252 9.82175H16.5181C16.6484 9.82175 16.7553 9.86372 16.8386 9.94765C16.922 10.0316 16.9639 10.1384 16.9645 10.2682ZM18.7503 20.3695V7.14396H6.2498V20.3695C6.2498 20.5743 6.28224 20.7627 6.34713 20.9347C6.41201 21.1067 6.47957 21.2323 6.54981 21.3115C6.62005 21.3907 6.66887 21.4303 6.69625 21.4303H18.3039C18.3319 21.4303 18.3807 21.3907 18.4503 21.3115C18.5199 21.2324 18.5875 21.1068 18.653 20.9347C18.7185 20.7627 18.7509 20.5743 18.7503 20.3695ZM9.37493 5.35728H15.6252L14.9555 3.72507C14.8906 3.64114 14.8115 3.58995 14.718 3.57149H10.2955C10.2026 3.58995 10.1235 3.64114 10.058 3.72507L9.37493 5.35728ZM22.3219 5.80373V6.69662C22.3219 6.82699 22.2799 6.93384 22.196 7.01717C22.1121 7.10051 22.0052 7.14248 21.8755 7.14307H20.5361V20.3686C20.5361 21.1407 20.3177 21.808 19.8807 22.3705C19.4438 22.933 18.9182 23.2143 18.3039 23.2143H6.69625C6.08253 23.2143 5.55691 22.9422 5.1194 22.3982C4.68188 21.8541 4.46342 21.196 4.46401 20.424V7.14218H3.12467C2.99431 7.14218 2.88746 7.10021 2.80412 7.01628C2.72078 6.93235 2.67882 6.8255 2.67822 6.69573V5.80284C2.67822 5.67247 2.72019 5.56562 2.80412 5.48229C2.88805 5.39895 2.9949 5.35699 3.12467 5.35639H7.43556L8.41239 3.02683C8.55168 2.68277 8.80288 2.3899 9.16599 2.14822C9.5291 1.90654 9.89638 1.78571 10.2678 1.78571H14.7323C15.1043 1.78571 15.4716 1.90654 15.8341 2.14822C16.1966 2.3899 16.4478 2.68277 16.5877 3.02683L17.5646 5.35639H21.8755C22.0058 5.35639 22.1127 5.39836 22.196 5.48229C22.2793 5.56622 22.3213 5.67396 22.3219 5.80373Z" fill="#B20000"/>
</svg>
