<svg width="25" height="25" viewBox="0 0 25 25" fill="none" xmlns="http://www.w3.org/2000/svg">
<path d="M22.8076 20.21L17.6025 15.7861C17.0654 15.3027 16.4893 15.0781 16.0254 15.1025C17.2559 13.6621 17.998 11.7969 17.998 9.75586C17.9932 5.2002 14.3066 1.51367 9.75586 1.51367C5.20508 1.51367 1.51367 5.2002 1.51367 9.75586C1.51367 14.3115 5.2002 17.998 9.75586 17.998C11.7969 17.998 13.6621 17.2559 15.1025 16.0254C15.0781 16.4893 15.3027 17.0654 15.7861 17.6025L20.21 22.8076C20.9668 23.6475 22.207 23.7207 22.959 22.9639C23.7158 22.207 23.6475 20.9717 22.8076 20.21ZM9.75586 15.2441C6.72363 15.2441 4.2627 12.7832 4.2627 9.75098C4.2627 6.71875 6.71875 4.25781 9.75586 4.25781C12.793 4.25781 15.249 6.71875 15.249 9.75098C15.249 12.7832 12.7881 15.2441 9.75586 15.2441Z" fill="black"/>
</svg>
